# Blender v2.90.0 OBJ File: 'SWAMP.blend'
# www.blender.org
mtllib dragonflyBod.mtl
o DragonflyBod_Cube.001
v 0.308446 0.305262 1.912040
v 0.085890 -0.114322 -1.533323
v -0.067228 0.127853 -1.490091
v 0.354606 -0.288280 0.513098
v 0.388554 0.375734 1.643898
v -0.315591 -0.382472 0.517985
v -0.337515 -0.371313 0.979706
v 0.068411 0.033602 -4.698881
v 0.274222 0.274505 1.297492
v -0.193749 0.301437 1.273096
v 0.376821 -0.240328 1.668985
v 0.129475 0.130112 2.139992
v 0.182365 -0.236886 1.972190
v -0.071734 0.411355 1.735666
v 0.106694 -0.268667 -0.926861
v 0.129884 0.078130 -1.438213
v -0.380340 -0.175675 0.053787
v -0.340215 -0.346727 0.510292
v -0.382144 -0.064921 1.740018
v -0.205400 -0.371811 1.664250
v -0.098675 -0.082483 -1.877373
v -0.065836 0.054028 -4.653981
v 0.353183 -0.086211 -0.291577
v 0.377494 0.189324 0.967221
v 0.196696 -0.268112 1.277344
v -0.162399 -0.179396 2.085675
v -0.004423 -0.084360 -4.667792
v 0.312158 0.346721 -0.360484
v 0.275263 -0.372447 0.486492
v -0.202882 -0.099403 -1.007313
v -0.330109 0.259543 1.829556
v 0.277827 -0.375536 0.979689
v -0.308329 -0.166854 1.273758
v -0.377180 0.150267 1.074152
v -0.315954 0.359602 -0.293972
vt 0.327361 0.612298
vt 0.425507 0.576965
vt 0.365769 0.713101
vt 0.513214 0.725845
vt 0.644513 0.535568
vt 0.614019 0.748378
vt 0.348103 0.750556
vt 0.346476 0.750000
vt 0.397995 0.752007
vt 0.669881 0.750000
vt 0.663687 0.749944
vt 0.673900 0.750000
vt 0.658735 0.762955
vt 0.687030 0.750000
vt 0.502205 0.787450
vt 0.370611 0.770028
vt 0.352502 0.500000
vt 0.342092 0.511366
vt 0.470806 0.500000
vt 0.662561 0.502977
vt 0.397198 0.505816
vt 0.649410 0.568652
vt 0.392217 0.611121
vt 0.588270 0.744334
vt 0.350482 0.750000
vt 0.328127 0.750000
vt 0.348163 0.750000
vt 0.453061 0.750000
vt 0.609699 0.756728
vt 0.541874 0.791991
vt 0.448042 0.782866
vt 0.654336 0.758278
vt 0.750585 0.750000
vt 0.658738 0.750000
vt 0.368448 0.733467
vt 0.346204 0.714659
vt 0.398504 0.500000
vt 0.435749 0.500000
vt 0.412427 0.500000
vt 0.577517 0.501065
vt 0.666801 0.582783
vt 0.331451 0.699398
vt 0.364199 0.750000
vt 0.331037 0.750000
vt 0.670343 0.750000
vt 0.654427 0.750000
vt 0.683703 0.543649
vt 0.656078 0.532167
vt 0.323053 0.619143
vt 0.327837 0.750000
vt 0.365462 0.765400
vt 0.417251 0.761396
vt 0.718327 0.500000
vt 0.440012 0.500000
vt 0.633158 0.753842
vt 0.623977 0.773986
vt 0.638109 0.754242
vt 0.349024 0.500000
vt 0.223691 0.500000
vt 0.334817 0.750000
vt 0.555677 0.500000
vt 0.340750 0.515176
vt 0.397487 0.750000
vt 0.634985 0.750000
vt 0.605513 0.501065
vt 0.710836 0.500000
vn 0.7432 -0.6487 -0.1642
vn 0.9954 0.0882 -0.0385
vn 0.7201 0.6923 0.0466
vn 0.2204 -0.9749 -0.0322
vn 0.0685 0.9664 -0.2477
vn 0.1309 0.9485 0.2884
vn 0.8345 -0.1251 0.5366
vn 0.2976 -0.9227 -0.2450
vn -0.9692 0.1065 -0.2222
vn -0.9945 0.1007 -0.0291
vn -0.9797 -0.1054 0.1705
vn -0.1649 -0.8021 0.5740
vn -0.9580 0.2081 -0.1972
vn 0.2324 -0.3765 0.8968
vn -0.2125 0.7494 0.6270
vn -0.9934 -0.1145 -0.0003
vn -0.3235 -0.0493 -0.9449
vn 0.9812 0.0640 -0.1819
vn 0.0251 0.9987 0.0441
vn -0.0069 -1.0000 -0.0062
vn 0.9304 -0.1568 0.3314
vn 0.9399 -0.1458 0.3088
vn -0.9864 0.0120 -0.1641
vn -0.7613 -0.6250 -0.1723
vn 0.0557 0.9979 0.0327
vn -0.0000 0.9817 -0.1902
vn -0.7903 0.1942 0.5811
vn 0.0143 -0.9986 -0.0504
vn -0.0064 -0.9412 0.3379
vn 0.2166 -0.9647 0.1499
vn -0.9487 0.2318 -0.2150
vn -0.4739 0.3017 0.8273
vn -0.4309 -0.8810 -0.1953
vn -0.9364 0.3345 -0.1057
vn 0.2490 0.9683 -0.0179
vn 0.9992 -0.0373 -0.0111
vn 0.8992 -0.0791 0.4304
vn -0.1755 -0.8900 -0.4209
vn 0.0172 0.9582 -0.2857
vn -0.0459 0.8092 0.5857
vn -0.4638 -0.8829 -0.0727
vn 0.9775 -0.2086 -0.0302
vn 0.8498 -0.5270 -0.0088
vn -0.1613 -0.9869 -0.0048
vn -0.8693 -0.4933 -0.0298
vn -0.8456 -0.0117 0.5337
vn -0.7837 -0.5309 0.3224
vn -0.9147 -0.4029 -0.0306
vn -0.9879 0.1552 -0.0041
vn 0.9202 -0.3422 -0.1903
vn 0.7942 -0.5918 -0.1382
vn 0.9307 -0.0732 -0.3585
vn -0.5228 0.8501 -0.0641
vn -0.9918 -0.1212 0.0418
vn -0.7993 -0.5825 -0.1480
vn -0.6843 0.7247 0.0803
vn 0.3032 0.9114 -0.2784
vn -0.0145 -0.9090 0.4165
vn 0.1429 0.9895 -0.0230
vn 0.9578 -0.2665 0.1078
usemtl None
s off
f 29/1/1 23/2/1 4/3/1
f 24/4/2 23/2/2 28/5/2
f 9/6/3 24/4/3 28/5/3
f 20/7/4 25/8/4 11/9/4
f 14/10/5 9/6/5 10/11/5
f 14/12/6 1/13/6 5/14/6
f 11/9/7 12/15/7 13/16/7
f 2/17/8 15/18/8 21/19/8
f 3/20/9 30/21/9 35/22/9
f 17/23/10 34/24/10 35/22/10
f 33/25/11 34/24/11 7/26/11
f 33/27/12 7/26/12 25/8/12
f 33/25/13 19/28/13 31/29/13
f 12/30/14 26/31/14 13/16/14
f 12/32/15 14/33/15 31/34/15
f 7/26/16 34/24/16 18/35/16 6/36/16
f 27/37/17 22/38/17 8/39/17
f 28/5/18 23/2/18 16/40/18
f 28/5/19 35/41/19 9/6/19
f 29/42/20 32/43/20 7/44/20
f 24/4/21 9/6/21 32/43/21
f 32/43/22 9/6/22 25/8/22
f 35/22/23 30/21/23 17/23/23
f 17/23/24 30/21/24 6/36/24
f 9/45/25 35/41/25 10/46/25
f 35/47/26 28/48/26 3/20/26
f 34/24/27 33/25/27 10/11/27
f 29/49/28 7/44/28 6/36/28 15/18/28
f 32/43/29 25/8/29 7/50/29
f 11/9/30 13/51/30 20/7/30
f 10/11/31 33/25/31 31/29/31
f 12/30/32 31/29/32 26/52/32
f 30/21/33 15/18/33 6/36/33
f 30/21/34 3/20/34 21/19/34
f 3/53/35 16/40/35 8/54/35
f 4/3/36 23/2/36 24/4/36
f 11/9/37 5/55/37 1/56/37 12/15/37
f 33/27/38 25/8/38 20/7/38
f 5/57/39 9/6/39 14/10/39
f 12/32/40 1/13/40 14/12/40
f 30/21/41 21/19/41 15/18/41
f 2/58/42 27/59/42 16/40/42
f 8/54/43 16/40/43 27/59/43
f 21/19/44 27/59/44 2/58/44
f 33/25/45 20/60/45 19/28/45
f 26/52/46 31/29/46 19/28/46
f 20/60/47 26/52/47 19/28/47
f 27/59/48 21/19/48 22/61/48
f 3/20/49 22/61/49 21/19/49
f 15/62/50 2/17/50 16/40/50 23/2/50
f 29/1/51 15/62/51 23/2/51
f 11/9/52 25/63/52 9/64/52 5/55/52
f 10/11/53 31/29/53 14/10/53
f 34/24/54 17/23/54 18/35/54
f 18/35/55 17/23/55 6/36/55
f 10/46/56 35/22/56 34/24/56
f 3/20/57 28/48/57 16/65/57
f 20/7/58 13/51/58 26/52/58
f 22/66/59 3/53/59 8/54/59
f 4/3/60 24/4/60 32/43/60 29/42/60
