# Blender v2.90.0 OBJ File: 'SWAMP.blend'
# www.blender.org
mtllib lilypad2.mtl
o Cylinder
v 0.001165 -0.066119 -1.015272
v 0.231834 -0.076904 -0.998724
v 0.717520 -0.064405 -0.726565
v 0.924032 -0.050705 -0.367690
v 0.985913 -0.050389 -0.189402
v 0.974951 -0.053779 0.079683
v 0.714614 -0.036240 0.711255
v 0.692847 0.007754 0.664120
v 0.151450 -0.049883 0.980378
v 0.081536 0.013762 0.859412
v -0.193101 -0.052494 0.980111
v -0.338291 0.002057 0.868643
v -0.499358 0.004119 0.766961
v -0.949536 -0.042036 0.311245
v -0.955619 -0.049394 -0.192982
v -0.801476 0.012175 -0.337644
v -0.193494 -0.043493 -0.965132
v -0.210161 0.004284 -0.914693
v 0.136523 -0.064470 -1.003652
v -0.035375 -0.011919 -0.945404
v 0.167800 -0.021926 -0.942402
v 0.282767 -0.067863 -0.982603
v 0.375030 -0.014189 -0.883355
v 0.633745 -0.056026 -0.776672
v 0.626638 -0.016924 -0.735753
v 0.782860 -0.064374 -0.654377
v 0.971297 -0.052001 -0.263647
v 0.923463 -0.006372 -0.241719
v 0.940375 -0.010978 0.027641
v 0.954887 -0.017953 0.195822
v 0.554219 -0.000529 0.752394
v 0.376010 -0.013535 0.877764
v 0.275926 -0.045225 0.932558
v 0.178247 -0.012381 0.935297
v -0.016799 -0.021212 0.975828
v -0.472723 -0.050259 0.872688
v -0.612521 -0.005509 0.676868
v -0.805695 -0.003376 0.563742
v -0.876307 -0.055604 0.432601
v -0.812990 -0.007374 0.407983
v -0.937882 -0.007608 0.270752
v -1.001005 -0.050191 0.063419
v -0.944923 -0.006623 0.006854
v -0.960526 -0.048975 -0.138109
v -0.912526 -0.013806 -0.138323
v -0.928030 -0.018551 -0.322774
v -0.907490 -0.146476 -0.503713
v -0.745785 0.016859 -0.398701
v -0.522970 -0.179441 -0.888971
v -0.371777 -0.056023 -0.898179
v -0.087198 -0.051224 -0.990710
v 0.000000 0.045526 -0.000000
v 0.050144 -0.070331 -1.020157
v 0.010925 0.029132 -0.670459
v 0.021769 -0.044624 -1.003310
v 0.375195 -0.050892 -0.919667
v 0.164567 0.014689 -0.831799
v 0.428112 -0.050501 -0.896164
v 0.518377 -0.062024 -0.870385
v 0.564289 -0.061493 -0.853491
v 0.599320 -0.062024 -0.816300
v 0.673838 -0.057053 -0.747257
v 0.365856 0.029800 -0.546516
v 0.758622 -0.064375 -0.702193
v 0.822009 -0.051685 -0.561848
v 0.857548 -0.028858 -0.473035
v 0.879968 -0.053728 -0.468978
v 0.556629 0.029085 -0.371242
v 0.973609 -0.030513 -0.214087
v 0.985757 -0.051286 -0.049055
v 0.810026 0.018771 -0.159042
v 0.984166 -0.050707 0.185670
v 0.972740 -0.051874 0.247991
v 0.906308 -0.037310 0.449074
v 0.644232 0.029836 0.127540
v 0.903564 -0.016573 0.415347
v 0.843671 -0.045196 0.535714
v 0.788378 -0.041676 0.621450
v 0.704786 0.017855 0.461728
v 0.706696 -0.011250 0.701354
v 0.608708 -0.055152 0.806648
v 0.423263 0.030280 0.485766
v 0.554337 -0.050902 0.844540
v 0.469046 -0.050110 0.874993
v 0.409536 -0.049437 0.901638
v 0.366213 0.017028 0.752903
v 0.045834 -0.050053 0.992048
v -0.080871 -0.059527 1.009573
v -0.146000 -0.053159 1.003187
v 0.013568 0.029621 0.661570
v -0.281570 -0.038517 0.930219
v -0.342498 -0.034845 0.902902
v -0.251797 0.028872 0.621383
v -0.554009 -0.052120 0.836493
v -0.589076 -0.059194 0.798631
v -0.671806 -0.055505 0.703708
v -0.773295 -0.043294 0.643031
v -0.836627 -0.039675 0.572435
v -0.464750 0.029510 0.469774
v -0.974004 -0.046209 0.206294
v -0.648821 0.029622 0.110000
v -1.012101 -0.045479 0.004906
v -0.997602 -0.050680 -0.041728
v -0.960662 -0.048114 -0.266469
v -0.945086 -0.051017 -0.342835
v -0.790452 0.020842 -0.144324
v -0.922782 -0.126013 -0.452739
v -0.454323 -0.129544 -0.899726
v -0.305773 -0.063867 -0.939869
v -0.248883 -0.047998 -0.951446
v -0.341640 0.022961 -0.617536
v 0.324139 0.012555 -0.801020
v 0.559356 0.013202 -0.655225
v 0.768021 0.003699 -0.500719
v 0.796458 0.013356 -0.324660
v 0.860245 0.012999 0.002665
v 0.875221 0.005772 0.222763
v 0.862360 0.005402 0.399642
v -0.194486 0.003744 0.898730
v -0.421043 -0.040657 0.892107
v -0.609266 0.012208 0.609830
v -0.786849 -0.020062 0.617862
v -0.734495 0.016583 0.380362
v -0.850088 0.014166 0.024197
v -0.832606 -0.053283 -0.454412
v -0.420864 -0.023576 -0.751183
v -0.482148 -0.091562 -0.843591
v -0.226016 0.035939 -0.422831
v -0.030944 0.010575 -0.864229
v -0.934025 -0.084686 -0.398922
vt 1.000000 0.383897
vt 0.990233 0.375383
vt 0.996641 0.359571
vt 0.978602 0.319517
vt 0.831696 0.419424
vt 0.889337 0.322409
vt 0.928550 0.415942
vt 0.946300 0.311113
vt 0.948602 0.252491
vt 0.858182 0.253434
vt 0.889797 0.216431
vt 0.891515 0.190609
vt 0.909260 0.213436
vt 0.729302 0.259066
vt 0.756052 0.156273
vt 0.788801 0.115415
vt 0.852619 0.131280
vt 0.808377 0.104736
vt 0.789182 0.088687
vt 0.660194 0.072481
vt 0.619360 0.181312
vt 0.755113 0.055316
vt 0.680580 0.037768
vt 0.730609 0.046522
vt 0.632323 0.032959
vt 0.627890 0.021224
vt 0.570097 0.076698
vt 0.510460 0.031046
vt 0.572957 0.011026
vt 0.492490 0.011932
vt 0.516069 0.000844
vt 0.478014 0.002689
vt 0.408730 0.018049
vt 0.396391 0.085510
vt 0.294374 0.061742
vt 0.377168 0.045674
vt 0.360999 0.201504
vt 0.288923 0.106333
vt 0.293356 0.046238
vt 0.263897 0.058569
vt 0.190397 0.112647
vt 0.204134 0.130893
vt 0.191391 0.217394
vt 0.093787 0.248854
vt 0.137342 0.154440
vt 0.174119 0.115585
vt 0.102398 0.191874
vt 0.074013 0.241215
vt 0.066084 0.237329
vt 0.031460 0.299773
vt 0.067865 0.317959
vt 0.020767 0.330306
vt 0.024431 0.421017
vt 0.082400 0.410754
vt 0.008713 0.407214
vt 0.014123 0.375259
vt 0.069456 0.564243
vt 0.019825 0.524897
vt 0.008176 0.475524
vt 0.000549 0.541464
vt 0.022403 0.624336
vt 0.006130 0.593969
vt 0.012480 0.657407
vt 0.170036 0.573387
vt 0.073829 0.693344
vt 0.113980 0.765248
vt 0.025232 0.687034
vt 0.094943 0.772345
vt 0.074883 0.745745
vt 0.219305 0.697201
vt 0.182363 0.834794
vt 0.111678 0.808727
vt 0.153984 0.865064
vt 0.234815 0.882719
vt 0.233133 0.908916
vt 0.321324 0.782232
vt 0.273943 0.865365
vt 0.290126 0.951277
vt 0.274336 0.950639
vt 0.320470 0.951865
vt 0.316927 0.970360
vt 0.393602 0.948475
vt 0.385671 0.974381
vt 0.390214 0.902895
vt 0.477201 0.981974
vt 0.458547 0.996755
vt 0.512798 0.998176
vt 0.590217 0.922515
vt 0.607399 0.960522
vt 0.586521 0.993359
vt 0.613776 0.989930
vt 0.680964 0.951840
vt 0.637614 0.980609
vt 0.676561 0.929126
vt 0.707206 0.942797
vt 0.667256 0.872398
vt 0.764358 0.909638
vt 0.743687 0.935682
vt 0.779776 0.920388
vt 0.805838 0.908226
vt 0.824477 0.857312
vt 0.853867 0.883171
vt 0.762398 0.849184
vt 0.927464 0.620264
vt 0.986286 0.582140
vt 0.972408 0.637535
vt 0.996062 0.617373
vt 0.998576 0.652279
vt 0.850286 0.596393
vt 0.972052 0.498116
vt 0.784191 0.817276
vt 0.521824 0.832483
vt 0.207814 0.353904
vt 0.485912 0.087053
vt 0.998695 0.541509
vt 0.997976 0.512565
vt 0.997707 0.484105
vt 0.972161 0.409993
vt 0.998379 0.429670
vt 0.964564 0.273939
vt 0.868027 0.149842
vt 0.831898 0.116836
vt 0.773826 0.069872
vt 0.346380 0.037332
vt 0.039960 0.708455
vt 0.125876 0.831500
vt 0.175736 0.879519
vt 0.500673 0.501990
vt 0.830868 0.896659
vt 0.735420 0.562908
vn -0.0993 0.5548 -0.8260
vn 0.0013 0.7283 -0.6853
vn 0.0699 0.5996 -0.7972
vn 0.1188 0.6736 -0.7295
vn -0.0030 0.9982 -0.0598
vn 0.0367 0.9806 -0.1926
vn 0.0160 0.9823 -0.1865
vn 0.0850 0.8906 -0.4468
vn 0.1492 0.7865 -0.5992
vn 0.0670 0.9812 -0.1809
vn 0.1960 0.8592 -0.4725
vn 0.2822 0.6449 -0.7102
vn 0.3197 0.6671 -0.6728
vn 0.0291 0.9985 -0.0462
vn 0.1150 0.9832 -0.1417
vn 0.3212 0.8619 -0.3923
vn 0.3266 0.7936 -0.5133
vn 0.5107 0.6552 -0.5566
vn 0.4146 0.6569 -0.6297
vn 0.2593 0.9480 -0.1843
vn 0.0495 0.9982 -0.0327
vn 0.4285 0.8201 -0.3792
vn 0.8566 0.3006 -0.4194
vn 0.7830 0.4787 -0.3970
vn 0.5716 0.7562 -0.3185
vn 0.7197 0.5887 -0.3680
vn 0.1398 0.9881 -0.0632
vn 0.3745 0.9203 -0.1126
vn 0.7048 0.6367 -0.3128
vn 0.7305 0.6710 -0.1269
vn 0.7390 0.6048 -0.2967
vn 0.8708 0.4901 -0.0394
vn 0.7181 0.6941 0.0501
vn 0.1789 0.9838 0.0053
vn 0.5815 0.8115 0.0566
vn 0.5043 0.8634 0.0134
vn 0.0545 0.9984 0.0104
vn 0.2100 0.9772 0.0293
vn 0.7747 0.6316 0.0283
vn 0.7729 0.6071 0.1843
vn 0.5979 0.7733 0.2108
vn 0.2889 0.9531 0.0902
vn 0.0729 0.9965 0.0405
vn 0.2126 0.9522 0.2193
vn 0.7601 0.4359 0.4819
vn 0.5694 0.7308 0.3764
vn 0.6704 0.5866 0.4543
vn 0.4804 0.7105 0.5141
vn 0.6273 0.4504 0.6353
vn 0.5238 0.4945 0.6936
vn 0.1444 0.9451 0.2932
vn 0.2802 0.8090 0.5166
vn 0.1751 0.8456 0.5041
vn 0.0643 0.9883 0.1379
vn 0.2674 0.6813 0.6814
vn 0.2726 0.6390 0.7192
vn 0.0171 0.9820 0.1879
vn 0.1348 0.8551 0.5006
vn 0.2150 0.6362 0.7410
vn 0.1455 0.7080 0.6911
vn 0.0242 0.8163 0.5771
vn 0.0814 0.6170 0.7827
vn 0.0060 0.6552 0.7554
vn -0.0016 0.9984 0.0569
vn -0.0647 0.9470 0.3145
vn -0.1500 0.9010 0.4071
vn -0.1119 0.8110 0.5742
vn -0.2129 0.6777 0.7038
vn -0.3119 0.6261 0.7146
vn -0.0249 0.9978 0.0610
vn -0.2057 0.9388 0.2761
vn -0.2668 0.7993 0.5384
vn -0.3673 0.8110 0.4552
vn -0.3055 0.8816 0.3597
vn -0.3771 0.7266 0.5743
vn -0.0394 0.9983 0.0426
vn -0.1043 0.9850 0.1372
vn -0.4879 0.6650 0.5654
vn -0.4499 0.5223 0.7244
vn -0.4481 0.8690 0.2095
vn -0.7190 0.6294 0.2947
vn -0.3770 0.9149 0.1443
vn -0.5608 0.7952 0.2304
vn -0.1314 0.9897 0.0559
vn -0.5379 0.8238 0.1786
vn -0.6658 0.6520 0.3627
vn -0.8332 0.5328 0.1479
vn -0.1630 0.9866 -0.0084
vn -0.3939 0.9184 -0.0370
vn -0.5870 0.8061 0.0743
vn -0.5260 0.8504 -0.0077
vn -0.5885 0.7936 -0.1543
vn -0.8259 0.4714 -0.3093
vn -0.4172 0.9060 -0.0710
vn -0.6359 0.7716 0.0150
vn -0.1373 0.9902 -0.0248
vn -0.5352 0.8109 -0.2367
vn -0.6887 0.7250 -0.0011
vn -0.6851 0.6079 -0.4013
vn -0.5331 0.6585 -0.5312
vn -0.4308 0.7697 -0.4711
vn -0.5711 0.6356 -0.5194
vn -0.2432 0.9542 -0.1742
vn -0.3320 0.9098 -0.2487
vn -0.4185 0.7159 -0.5588
vn -0.4885 0.6956 -0.5266
vn -0.4996 0.5653 -0.6564
vn -0.5146 0.5699 -0.6406
vn -0.0992 0.9902 -0.0977
vn -0.1632 0.8925 -0.4206
vn -0.2350 0.9570 -0.1700
vn -0.0513 0.9987 0.0070
vn 0.0323 0.9986 0.0417
vn 0.1322 0.9911 -0.0176
vn -0.3439 0.6594 -0.6685
vn -0.2927 0.6854 -0.6667
vn -0.1623 0.6874 -0.7079
vn 0.0236 0.9194 -0.3926
vn -0.1222 0.6879 -0.7154
vn 0.1201 0.6783 -0.7248
vn 0.2772 0.6352 -0.7209
vn 0.5497 0.6354 -0.5422
vn 0.4019 0.6432 -0.6517
vn 0.7620 0.6469 -0.0291
vn -0.3205 0.6165 0.7191
vn -0.3861 0.3622 0.8484
vn -0.7383 0.1787 0.6504
vn 0.0032 1.0000 -0.0001
vn -0.9048 0.2248 -0.3617
vn -0.0084 0.9993 -0.0355
usemtl None
s 1
f 1/1/1 55/2/2 53/3/3
f 55/2/2 19/4/4 53/3/3
f 54/5/5 57/6/6 129/7/7
f 55/2/2 21/8/8 22/9/9
f 112/10/10 23/11/11 21/8/8
f 23/11/11 58/12/12 56/13/13
f 112/10/10 63/14/14 113/15/15
f 23/11/11 25/16/16 60/17/17
f 24/18/18 25/16/16 62/19/19
f 113/15/15 114/20/20 25/16/16
f 113/15/15 68/21/21 114/20/20
f 64/22/22 65/23/23 26/24/24
f 114/20/20 66/25/25 64/22/22
f 65/23/23 66/25/25 67/26/26
f 114/20/20 115/27/27 28/28/28
f 114/20/20 68/21/21 115/27/27
f 66/25/25 4/29/29 67/26/26
f 66/25/25 28/28/28 69/30/30
f 4/29/29 69/30/30 27/31/31
f 69/30/30 5/32/32 27/31/31
f 69/30/30 70/33/33 5/32/32
f 116/34/34 30/35/35 29/36/36
f 116/34/34 75/37/37 117/38/38
f 72/39/39 30/35/35 73/40/40
f 117/38/38 76/41/41 30/35/35
f 118/42/42 79/43/43 8/44/44
f 76/41/41 77/45/45 74/46/46
f 76/41/41 78/47/47 77/45/45
f 8/44/44 80/48/48 76/41/41
f 78/47/47 80/48/48 7/49/49
f 7/49/49 80/48/48 81/50/50
f 80/48/48 31/51/51 83/52/52
f 31/51/51 32/53/53 83/52/52
f 31/51/51 86/54/54 32/53/53
f 32/53/53 85/55/55 84/56/56
f 32/53/53 10/57/57 34/58/58
f 33/59/59 34/58/58 9/60/60
f 34/58/58 10/57/57 35/61/61
f 9/60/60 35/61/61 87/62/62
f 87/62/62 35/61/61 88/63/63
f 90/64/64 119/65/65 10/57/57
f 119/65/65 12/66/66 89/67/67
f 12/66/66 92/68/68 91/69/69
f 93/70/70 13/71/71 12/66/66
f 120/72/72 13/71/71 94/73/73
f 37/74/74 96/75/75 94/73/73
f 99/76/76 121/77/77 13/71/71
f 96/75/75 122/78/78 97/79/79
f 96/75/75 37/74/74 122/78/78
f 121/77/77 38/80/80 37/74/74
f 97/79/79 122/78/78 98/81/81
f 40/82/82 39/83/83 38/80/80
f 38/80/80 39/83/83 98/81/81
f 123/84/84 40/82/82 38/80/80
f 40/82/82 123/84/84 41/85/85
f 14/86/86 41/85/85 100/87/87
f 124/88/88 43/89/89 41/85/85
f 42/90/90 43/89/89 102/91/91
f 102/91/91 44/92/92 103/93/93
f 44/92/92 45/94/94 15/95/95
f 45/94/94 106/96/96 46/97/97
f 104/98/98 46/97/97 105/99/99
f 105/99/99 46/97/97 130/100/100
f 46/97/97 125/101/101 130/100/100
f 130/100/100 125/101/101 47/102/102
f 46/97/97 16/103/103 125/101/101
f 126/104/104 50/105/105 127/106/106
f 127/106/106 108/107/107 49/108/108
f 111/109/109 54/5/5 18/110/110
f 106/96/96 48/111/111 16/103/103
f 101/112/112 106/96/96 124/88/88
f 93/70/70 99/76/76 13/71/71
f 90/64/64 93/70/70 119/65/65
f 86/54/54 90/64/64 10/57/57
f 79/43/43 82/113/113 8/44/44
f 75/37/37 79/43/43 118/42/42
f 71/114/114 75/37/37 116/34/34
f 68/21/21 71/114/114 115/27/27
f 63/14/14 68/21/21 113/15/15
f 57/6/6 63/14/14 112/10/10
f 50/105/105 109/115/115 108/107/107
f 111/109/109 18/110/110 126/104/104
f 126/104/104 18/110/110 50/105/105
f 18/110/110 110/116/116 109/115/115
f 18/110/110 17/117/117 110/116/116
f 18/110/110 20/118/118 55/2/2
f 18/110/110 129/7/7 20/118/118
f 51/119/119 55/2/2 1/1/1
f 20/118/118 21/8/8 55/2/2
f 22/9/9 2/120/120 19/4/4 55/2/2
f 113/15/15 25/16/16 23/11/11 112/10/10
f 57/6/6 112/10/10 21/8/8
f 21/8/8 23/11/11 22/9/9
f 22/9/9 23/11/11 56/13/13
f 60/17/17 59/121/121 58/12/12 23/11/11
f 24/18/18 61/122/122 60/17/17 25/16/16
f 64/22/22 3/123/123 62/19/19 25/16/16
f 29/36/36 28/28/28 71/114/114 116/34/34
f 25/16/16 114/20/20 64/22/22
f 64/22/22 66/25/25 65/23/23
f 66/25/25 114/20/20 28/28/28
f 4/29/29 66/25/25 69/30/30
f 28/28/28 115/27/27 71/114/114
f 28/28/28 29/36/36 69/30/30
f 6/124/124 70/33/33 69/30/30 29/36/36
f 30/35/35 72/39/39 6/124/124 29/36/36
f 30/35/35 116/34/34 117/38/38
f 74/46/46 73/40/40 30/35/35 76/41/41
f 117/38/38 75/37/37 118/42/42
f 33/59/59 85/55/55 32/53/53 34/58/58
f 76/41/41 117/38/38 118/42/42
f 76/41/41 118/42/42 8/44/44
f 76/41/41 80/48/48 78/47/47
f 80/48/48 8/44/44 31/51/51
f 8/44/44 82/113/113 31/51/51
f 31/51/51 82/113/113 86/54/54
f 81/50/50 80/48/48 83/52/52
f 83/52/52 32/53/53 84/56/56
f 91/69/69 11/125/125 89/67/67 12/66/66
f 86/54/54 10/57/57 32/53/53
f 9/60/60 34/58/58 35/61/61
f 88/63/63 35/61/61 89/67/67
f 10/57/57 119/65/65 35/61/61
f 35/61/61 119/65/65 89/67/67
f 45/94/94 43/89/89 124/88/88 106/96/96
f 119/65/65 93/70/70 12/66/66
f 92/68/68 12/66/66 120/72/72
f 120/72/72 12/66/66 13/71/71
f 36/126/126 120/72/72 94/73/73
f 13/71/71 37/74/74 94/73/73
f 94/73/73 96/75/75 95/127/127
f 13/71/71 121/77/77 37/74/74
f 122/78/78 37/74/74 38/80/80
f 121/77/77 99/76/76 123/84/84
f 38/80/80 121/77/77 123/84/84
f 122/78/78 38/80/80 98/81/81
f 14/86/86 39/83/83 41/85/85
f 39/83/83 40/82/82 41/85/85
f 123/84/84 101/112/112 124/88/88
f 41/85/85 123/84/84 124/88/88
f 100/87/87 41/85/85 42/90/90
f 41/85/85 43/89/89 42/90/90
f 43/89/89 45/94/94 102/91/91
f 46/97/97 104/98/98 15/95/95 45/94/94
f 102/91/91 45/94/94 44/92/92
f 75/37/37 71/114/114 68/21/21 52/128/128
f 46/97/97 106/96/96 16/103/103
f 107/129/129 130/100/100 47/102/102
f 125/101/101 16/103/103 48/111/111
f 127/106/106 50/105/105 108/107/107
f 54/5/5 52/128/128 63/14/14
f 54/5/5 63/14/14 57/6/6
f 128/130/130 52/128/128 54/5/5
f 128/130/130 54/5/5 111/109/109
f 106/96/96 52/128/128 48/111/111
f 101/112/112 52/128/128 106/96/96
f 123/84/84 99/76/76 101/112/112
f 99/76/76 52/128/128 101/112/112
f 93/70/70 52/128/128 99/76/76
f 90/64/64 52/128/128 93/70/70
f 86/54/54 82/113/113 90/64/64
f 82/113/113 52/128/128 90/64/64
f 79/43/43 75/37/37 82/113/113
f 75/37/37 52/128/128 82/113/113
f 55/2/2 51/119/119 17/117/117 18/110/110
f 63/14/14 52/128/128 68/21/21
f 50/105/105 18/110/110 109/115/115
f 21/8/8 20/118/118 129/7/7 57/6/6
f 18/110/110 54/5/5 129/7/7
